<?xml version="1.0" standalone="no"?>
<!DOCTYPE svg PUBLIC "-//W3C//DTD SVG 1.1//EN" "http://www.w3.org/Graphics/SVG/1.1/DTD/svg11.dtd">
<svg viewBox="-6 -6 1020.75189887118 780" style="fill-opacity:0.5; stroke:black; stroke-width:1; fill:none" xmlns="http://www.w3.org/2000/svg" version="1.1">
<circle r="5" cx="143.323052" cy="525.77278" />
<circle r="5" cx="316.03101" cy="481.821325" />
<circle r="5" cx="328.040157" cy="498.381479" />
<circle r="5" cx="309.601982" cy="444.347806" />
<circle r="5" cx="364.360467" cy="489.876714" />
<circle r="5" cx="26.143245" cy="353.950082" />
<circle r="5" cx="400.278856" cy="306.873608" />
<circle r="5" cx="489.732654" cy="329.756114" />
<circle r="5" cx="99.685455" cy="221.64768" />
<circle r="5" cx="111.839056" cy="381.531157" />
<circle r="5" cx="322.04671" cy="476.050176" />
<circle r="5" cx="295.085123" cy="204.824586" />
<circle r="5" cx="276.196041" cy="446.163309" />
<circle r="5" cx="310.195774" cy="473.030708" />
<circle r="5" cx="319.447332" cy="480.064076" />
<circle r="5" cx="310.981013" cy="333.672072" />
<circle r="5" cx="311.533513" cy="474.631217" />
<circle r="5" cx="308.84575" cy="586.790749" />
<circle r="5" cx="318.614658" cy="480.091377" />
<circle r="5" cx="320.113385" cy="479.730337" />
<circle r="5" cx="214.799957" cy="470.351817" />
<circle r="5" cx="359.409901" cy="295.592235" />
<circle r="5" cx="459.391228" cy="347.1945" />
<circle r="5" cx="381.496247" cy="512.185172" />
<circle r="5" cx="283.134198" cy="453.739963" />
<circle r="5" cx="490.592629" cy="330.203165" />
<circle r="5" cx="350.909456" cy="470.79409" />
<circle r="5" cx="309.843375" cy="479.716304" />
<circle r="5" cx="344.73811" cy="531.051731" />
<circle r="5" cx="318.099355" cy="479.74022" />
<circle r="5" cx="302.628675" cy="555.146051" />
<circle r="5" cx="295.807912" cy="586.565858" />
<circle r="5" cx="311.970326" cy="473.450457" />
<circle r="5" cx="251.947472" cy="472.016142" />
<circle r="5" cx="343.704434" cy="325.511522" />
<circle r="5" cx="313.687764" cy="479.856638" />
<circle r="5" cx="180.140569" cy="406.277865" />
<circle r="5" cx="319.106516" cy="477.934068" />
<circle r="5" cx="218.036125" cy="480.98616" />
<circle r="5" cx="361.657098" cy="471.98577" />
<circle r="5" cx="322.182032" cy="480.333775" />
<circle r="5" cx="302.485346" cy="472.983272" />
<circle r="5" cx="318.777002" cy="480.025039" />
<circle r="5" cx="321.889116" cy="481.54064" />
<circle r="5" cx="211.769568" cy="481.623634" />
<circle r="5" cx="398.154473" cy="497.342933" />
<circle r="5" cx="291.756442" cy="492.122168" />
<circle r="5" cx="270.886904" cy="558.232403" />
<circle r="5" cx="314.896016" cy="478.284917" />
<circle r="5" cx="160.499009" cy="494.488453" />
<circle r="5" cx="398.447379" cy="486.592776" />
<circle r="5" cx="262.795382" cy="435.627492" />
<circle r="5" cx="205.342619" cy="488.925915" />
<circle r="5" cx="301.202654" cy="465.71138" />
<circle r="5" cx="379.293073" cy="408.279696" />
<circle r="5" cx="317.605382" cy="477.891956" />
<circle r="5" cx="190.333663" cy="349.343755" />
<circle r="5" cx="364.892925" cy="469.696598" />
<circle r="5" cx="51.301614" cy="473.644293" />
<circle r="5" cx="365.008953" cy="530.720709" />
<circle r="5" cx="743.587087" cy="97.24374" />
<circle r="5" cx="322.43834" cy="479.098822" />
<circle r="5" cx="34.914671" cy="469.808926" />
<circle r="5" cx="263.326104" cy="368.912968" />
<circle r="5" cx="320.131691" cy="480.810912" />
<circle r="5" cx="279.091974" cy="441.964446" />
<circle r="5" cx="58.506636" cy="421.565289" />
<circle r="5" cx="37.184691" cy="469.921189" />
<circle r="5" cx="316.470369" cy="478.874301" />
<circle r="5" cx="418.500433" cy="376.776622" />
<circle r="5" cx="346.386396" cy="416.739873" />
<circle r="5" cx="318.923455" cy="481.063515" />
<circle r="5" cx="245.864171" cy="496.069169" />
<circle r="5" cx="320.662583" cy="482.649305" />
<circle r="5" cx="91.628556" cy="582.042285" />
<circle r="5" cx="117.257813" cy="384.280564" />
<circle r="5" cx="79.912324" cy="479.519836" />
<circle r="5" cx="319.490945" cy="480.810923" />
<circle r="5" cx="311.426699" cy="474.237062" />
<circle r="5" cx="300.844909" cy="448.743234" />
<circle r="5" cx="289.12029" cy="482.045862" />
<circle r="5" cx="352.235933" cy="344.470562" />
<circle r="5" cx="295.93035" cy="454.597851" />
<circle r="5" cx="339.133955" cy="496.809624" />
<circle r="5" cx="319.402969" cy="480.606679" />
<circle r="5" cx="341.037843" cy="588.219774" />
<circle r="5" cx="237.202737" cy="426.760221" />
<circle r="5" cx="321.431452" cy="478.34102" />
<circle r="5" cx="392.579348" cy="517.626563" />
<circle r="5" cx="319.402969" cy="480.606679" />
<circle r="5" cx="317.056181" cy="476.853506" />
<circle r="5" cx="378.346719" cy="488.192638" />
<circle r="5" cx="339.544133" cy="448.057302" />
<circle r="5" cx="312.785937" cy="510.477166" />
<circle r="5" cx="239.253078" cy="564.858495" />
<circle r="5" cx="364.892925" cy="469.696598" />
<circle r="5" cx="397.715115" cy="498.549901" />
<circle r="5" cx="424.302876" cy="440.566645" />
<circle r="5" cx="320.204918" cy="483.000145" />
<circle r="5" cx="399.823274" cy="441.833743" />
<circle r="5" cx="321.59622" cy="472.896166" />
<circle r="5" cx="295.242785" cy="466.768587" />
<circle r="5" cx="293.440651" cy="598.890366" />
<circle r="5" cx="319.402969" cy="480.606679" />
<circle r="5" cx="143.805935" cy="302.926936" />
<circle r="5" cx="308.41546" cy="479.435636" />
<circle r="5" cx="395.628161" cy="498.662177" />
<circle r="5" cx="161.04723" cy="497.146451" />
<circle r="5" cx="318.557323" cy="480.642511" />
<circle r="5" cx="319.363041" cy="484.516495" />
<circle r="5" cx="108.47064" cy="462.11907" />
<circle r="5" cx="349.045835" cy="210.693917" />
<circle r="5" cx="400.278856" cy="306.873608" />
<circle r="5" cx="361.10189" cy="604.506662" />
<circle r="5" cx="365.491154" cy="492.556239" />
<circle r="5" cx="251.947472" cy="472.016142" />
<circle r="5" cx="308.042082" cy="448.509471" />
<circle r="5" cx="318.374257" cy="480.235541" />
<circle r="5" cx="315.555038" cy="481.428386" />
<circle r="5" cx="320.003552" cy="479.926821" />
<circle r="5" cx="346.310147" cy="325.540079" />
<circle r="5" cx="314.603094" cy="477.891968" />
<circle r="5" cx="194.584944" cy="446.627867" />
<circle r="5" cx="365.286398" cy="190.295101" />
<circle r="5" cx="213.184462" cy="404.649632" />
<circle r="5" cx="125.720862" cy="87.355732" />
<circle r="5" cx="0" cy="687.898234" />
<circle r="5" cx="329.961553" cy="430.438048" />
<circle r="5" cx="393.028622" cy="433.045847" />
<circle r="5" cx="429.348941" cy="413.516063" />
<circle r="5" cx="226.159478" cy="95.16103" />
<circle r="5" cx="308.963826" cy="476.088397" />
<circle r="5" cx="661.667626" cy="171.790961" />
<circle r="5" cx="399.823274" cy="441.833743" />
<circle r="5" cx="309.147724" cy="480.502176" />
<circle r="5" cx="320.827343" cy="478.2007" />
<circle r="5" cx="109.941" cy="454.513941" />
<circle r="5" cx="302.777023" cy="471.82966" />
<circle r="5" cx="304.651664" cy="468.644152" />
<circle r="5" cx="302.439958" cy="481.40591" />
<circle r="5" cx="791.087601" cy="48.812049" />
<circle r="5" cx="315.678457" cy="627.06557" />
<circle r="5" cx="309.806762" cy="493.441383" />
<circle r="5" cx="317.16602" cy="482.396701" />
<circle r="5" cx="291.620993" cy="456.919824" />
<circle r="5" cx="325.879968" cy="480.810912" />
<circle r="5" cx="311.426699" cy="474.237062" />
<circle r="5" cx="300.179793" cy="569.627077" />
<circle r="5" cx="685.076014" cy="194.120625" />
<circle r="5" cx="318.557323" cy="479.758404" />
<circle r="5" cx="352.235933" cy="344.470562" />
<circle r="5" cx="341.414238" cy="465.952975" />
<circle r="5" cx="316.873114" cy="478.172634" />
<circle r="5" cx="504.420484" cy="322.210856" />
<circle r="5" cx="319.655719" cy="477.162237" />
<circle r="5" cx="234.418994" cy="385.2211" />
<circle r="5" cx="255.188077" cy="466.154319" />
<circle r="5" cx="316.799888" cy="492.992288" />
<circle r="5" cx="319.402969" cy="480.606679" />
<circle r="5" cx="292.515435" cy="144.454329" />
<circle r="5" cx="872.973081" cy="20.026842" />
<circle r="5" cx="259.756484" cy="472.615506" />
<circle r="5" cx="28.360904" cy="482.438801" />
<circle r="5" cx="365.934835" cy="467.563687" />
<circle r="5" cx="314.456642" cy="478.818167" />
<circle r="5" cx="368.131629" cy="269.450284" />
<circle r="5" cx="283.774759" cy="640.173296" />
<circle r="5" cx="504.20003" cy="149.470851" />
<circle r="5" cx="358.446524" cy="545.82863" />
<circle r="5" cx="232.648878" cy="479.038248" />
<circle r="5" cx="199.710795" cy="464.476517" />
<circle r="5" cx="265.366497" cy="514.328626" />
<circle r="5" cx="308.378846" cy="479.912772" />
<circle r="5" cx="197.80521" cy="345.646203" />
<circle r="5" cx="321.230088" cy="483.084347" />
<circle r="5" cx="335.1065" cy="362.510635" />
<circle r="5" cx="264.221228" cy="524.294783" />
<circle r="5" cx="339.207181" cy="544.363143" />
<circle r="5" cx="333.440599" cy="478.256834" />
<circle r="5" cx="295.344538" cy="461.613906" />
<circle r="5" cx="489.95106" cy="330.063248" />
<circle r="5" cx="468.335653" cy="189.778092" />
<circle r="5" cx="318.008124" cy="480.628477" />
<circle r="5" cx="315.921171" cy="479.126901" />
<circle r="5" cx="373.581404" cy="492.243645" />
<circle r="5" cx="53.790082" cy="518.997746" />
<circle r="5" cx="264.49253" cy="343.646419" />
<circle r="5" cx="319.402969" cy="480.606679" />
<circle r="5" cx="251.042536" cy="433.382582" />
<circle r="5" cx="52.469064" cy="463.414684" />
<circle r="5" cx="318.227804" cy="477.863901" />
<circle r="5" cx="274.535812" cy="474.872147" />
<circle r="5" cx="317.239247" cy="483.673759" />
<circle r="5" cx="320.387984" cy="479.954872" />
<circle r="5" cx="121.138798" cy="385.346684" />
<circle r="5" cx="316.250682" cy="476.923665" />
<circle r="5" cx="329.756797" cy="572.837993" />
<circle r="5" cx="335.442188" cy="574.186993" />
<circle r="5" cx="339.380328" cy="575.852342" />
<circle r="5" cx="337.175789" cy="581.247663" />
<circle r="5" cx="321.669447" cy="477.948101" />
<circle r="5" cx="318.886842" cy="480.628477" />
<circle r="5" cx="397.216389" cy="481.446179" />
<circle r="5" cx="289.523036" cy="487.687417" />
<circle r="5" cx="240.234405" cy="143.530538" />
<circle r="5" cx="286.227845" cy="369.944725" />
<circle r="5" cx="389.806645" cy="360.09812" />
<circle r="5" cx="322.310178" cy="480.249574" />
<circle r="5" cx="315.042453" cy="480.642511" />
<circle r="5" cx="295.242785" cy="466.768587" />
<circle r="5" cx="318.264417" cy="479.323369" />
<circle r="5" cx="398.667085" cy="502.367464" />
<circle r="5" cx="352.235933" cy="344.470562" />
<circle r="5" cx="340.060459" cy="485.474412" />
<circle r="5" cx="407.234553" cy="460.322936" />
<circle r="5" cx="315.371972" cy="479.856638" />
<circle r="5" cx="315.664878" cy="478.565567" />
<circle r="5" cx="315.481812" cy="467.675948" />
<circle r="5" cx="443.408419" cy="328.681506" />
<circle r="5" cx="338.016653" cy="480.026537" />
<circle r="5" cx="35.939841" cy="469.865057" />
<circle r="5" cx="369.889064" cy="491.757281" />
<circle r="5" cx="354.950868" cy="500.177913" />
<circle r="5" cx="323.500477" cy="545.038954" />
<circle r="5" cx="227.24394" cy="480.530243" />
<circle r="5" cx="319.728946" cy="477.920034" />
<circle r="5" cx="314.218656" cy="480.502176" />
<circle r="5" cx="370.621328" cy="478.2849" />
<circle r="5" cx="479.517036" cy="280.876081" />
<circle r="5" cx="321.817383" cy="486.08868" />
<circle r="5" cx="305.303335" cy="432.933602" />
<circle r="5" cx="313.579026" cy="499.735667" />
<circle r="5" cx="537.877613" cy="272.40396" />
<circle r="5" cx="335.609747" cy="443.814416" />
<circle r="5" cx="319.747253" cy="480.712678" />
<circle r="5" cx="340.060459" cy="485.474412" />
<circle r="5" cx="397.824954" cy="500.037567" />
<circle r="5" cx="33.706435" cy="469.584401" />
<circle r="5" cx="341.184296" cy="275.507331" />
<circle r="5" cx="318.429176" cy="479.519836" />
<circle r="5" cx="320.51613" cy="477.316603" />
<circle r="5" cx="384.827259" cy="333.842516" />
<circle r="5" cx="321.70606" cy="482.466869" />
<circle r="5" cx="402.108701" cy="275.282993" />
<circle r="5" cx="319.893705" cy="480.207474" />
<circle r="5" cx="318.886842" cy="479.730337" />
<circle r="5" cx="356.252222" cy="466.690097" />
<circle r="5" cx="319.527573" cy="479.730337" />
<circle r="5" cx="314.877694" cy="481.48452" />
<circle r="5" cx="417.046897" cy="334.291304" />
<circle r="5" cx="404.451948" cy="318.584211" />
<circle r="5" cx="288.314799" cy="543.970099" />
<circle r="5" cx="319.783866" cy="479.842605" />
<circle r="5" cx="316.08593" cy="480.810912" />
<circle r="5" cx="318.264417" cy="480.460076" />
<circle r="5" cx="320.076772" cy="479.421602" />
<circle r="5" cx="260.342295" cy="437.31119" />
<circle r="5" cx="322.987523" cy="477.499035" />
<circle r="5" cx="311.426699" cy="474.237062" />
<circle r="5" cx="317.971511" cy="480.333775" />
<circle r="5" cx="308.30562" cy="480.417975" />
<circle r="5" cx="424.662448" cy="404.312939" />
<circle r="5" cx="872.973081" cy="20.026842" />
<circle r="5" cx="321.59622" cy="481.877459" />
<circle r="5" cx="214.502538" cy="352.580183" />
<circle r="5" cx="318.209497" cy="480.824946" />
<circle r="5" cx="738.239543" cy="192.55629" />
<circle r="5" cx="911.024935" cy="0" />
<circle r="5" cx="306.767864" cy="481.20385" />
<circle r="5" cx="309.843375" cy="480.19344" />
<circle r="5" cx="322.182032" cy="477.639368" />
<circle r="5" cx="108.543866" cy="480.867046" />
<circle r="5" cx="320.534437" cy="477.835834" />
<circle r="5" cx="389.862236" cy="294.851019" />
<circle r="5" cx="261.953283" cy="479.183045" />
<circle r="5" cx="386.657921" cy="502.19891" />
<circle r="5" cx="103.538963" cy="395.697782" />
<circle r="5" cx="319.402969" cy="480.606679" />
<circle r="5" cx="286.886883" cy="475.674717" />
<circle r="5" cx="320.131691" cy="480.530243" />
<circle r="5" cx="159.80318" cy="261.051264" />
<circle r="5" cx="312.479527" cy="474.580132" />
<circle r="5" cx="403.719683" cy="346.745538" />
<circle r="5" cx="311.426699" cy="474.237062" />
<circle r="5" cx="315.11568" cy="477.386769" />
<circle r="5" cx="248.918969" cy="467.78821" />
<circle r="5" cx="295.761159" cy="484.613754" />
<circle r="5" cx="51.301614" cy="130.87184" />
<circle r="5" cx="367.985176" cy="473.120694" />
<circle r="5" cx="229.440734" cy="452.68952" />
<circle r="5" cx="287.472695" cy="490.943302" />
<circle r="5" cx="340.060459" cy="485.474412" />
<circle r="5" cx="225.1936" cy="400.609345" />
<circle r="5" cx="395.884453" cy="499.981428" />
<circle r="5" cx="331.63748" cy="543.767419" />
<circle r="5" cx="322.351455" cy="450.99555" />
<circle r="5" cx="340.060459" cy="485.474412" />
<circle r="5" cx="40.662947" cy="768" />
<circle r="5" cx="333.129386" cy="455.944917" />
<circle r="5" cx="291.567415" cy="189.955547" />
<circle r="5" cx="614.562145" cy="237.585204" />
<circle r="5" cx="320.273182" cy="493.212823" />
<circle r="5" cx="262.978448" cy="433.915746" />
<circle r="5" cx="395.518313" cy="474.58013" />
<circle r="5" cx="284.58025" cy="513.651557" />
<circle r="5" cx="992.518844" cy="17.075967" />
<circle r="5" cx="60.10578" cy="426.791344" />
<circle r="5" cx="440.176585" cy="380.290234" />
<circle r="5" cx="319.472653" cy="480.375875" />
<circle r="5" cx="93.402176" cy="533.799215" />
<circle r="5" cx="367.403234" cy="381.440281" />
<circle r="5" cx="317.751832" cy="482.74754" />
<circle r="5" cx="364.892925" cy="469.696598" />
<circle r="5" cx="440.176585" cy="380.290234" />
<circle r="5" cx="267.079129" cy="442.025607" />
<circle r="5" cx="264.223297" cy="431.979524" />
<circle r="5" cx="228.415564" cy="354.038867" />
<circle r="5" cx="290.218687" cy="462.736495" />
<circle r="5" cx="340.060459" cy="485.474412" />
<circle r="5" cx="390.758602" cy="495.350047" />
<circle r="5" cx="274.332762" cy="444.641289" />
<circle r="5" cx="311.426699" cy="474.237062" />
<circle r="5" cx="318.30103" cy="479.898738" />
<circle r="5" cx="349.232504" cy="251.017197" />
<circle r="5" cx="294.099689" cy="492.0941" />
<circle r="5" cx="311.426699" cy="474.237062" />
<circle r="5" cx="318.41087" cy="477.330636" />
<circle r="5" cx="293.132775" cy="473.337842" />
<circle r="5" cx="231.417848" cy="469.163418" />
<circle r="5" cx="232.00366" cy="469.135352" />
<circle r="5" cx="340.060459" cy="485.474412" />
<circle r="5" cx="316.506982" cy="477.386769" />
<circle r="5" cx="368.909555" cy="476.311581" />
<circle r="5" cx="311.426699" cy="474.237062" />
<circle r="5" cx="198.832078" cy="455.944917" />
<circle r="5" cx="287.143176" cy="560.478515" />
<circle r="5" cx="457.467897" cy="320.154872" />
<circle r="5" cx="316.14085" cy="480.389909" />
<circle r="5" cx="379.554955" cy="502.648023" />
<circle r="5" cx="396.689944" cy="479.856638" />
<circle r="5" cx="369.522931" cy="481.147716" />
<circle r="5" cx="311.426699" cy="474.237062" />
<circle r="5" cx="322.438325" cy="478.762034" />
<circle r="5" cx="399.655615" cy="480.979314" />
<circle r="5" cx="190.191357" cy="487.715485" />
<circle r="5" cx="310.539027" cy="479.772437" />
<circle r="5" cx="315.847944" cy="477.709535" />
<circle r="5" cx="274.332762" cy="444.641289" />
<circle r="5" cx="365.385022" cy="492.451814" />
<circle r="5" cx="300.222451" cy="428.836857" />
<circle r="5" cx="305.156883" cy="487.15413" />
<circle r="5" cx="121.0456" cy="534.757814" />
<circle r="5" cx="425.057061" cy="251.320918" />
<circle r="5" cx="349.215441" cy="215.106408" />
<circle r="5" cx="311.376534" cy="471.83971" />
<circle r="5" cx="337.626252" cy="291.364365" />
<circle r="5" cx="302.813636" cy="317.237938" />
<circle r="5" cx="323.750621" cy="492.847675" />
<circle r="5" cx="311.997627" cy="486.240882" />
<circle r="5" cx="311.426699" cy="474.237062" />
<circle r="5" cx="314.786161" cy="479.379502" />
<circle r="5" cx="338.788925" cy="475.737923" />
<circle r="5" cx="350.909456" cy="470.79409" />
<circle r="5" cx="266.906945" cy="539.125942" />
<circle r="5" cx="322.566483" cy="479.660161" />
<circle r="5" cx="229.147828" cy="482.887876" />
<circle r="5" cx="359.490908" cy="496.304385" />
<circle r="5" cx="178.328672" cy="613.380686" />
<circle r="5" cx="228.928149" cy="418.791189" />
<circle r="5" cx="345.040466" cy="456.11445" />
<circle r="5" cx="333.708587" cy="475.006603" />
<circle r="5" cx="368.131629" cy="448.648401" />
<circle r="5" cx="309.147724" cy="480.025039" />
<circle r="5" cx="301.056201" cy="563.173878" />
<circle r="5" cx="340.216074" cy="377.936223" />
<circle r="5" cx="313.724377" cy="481.175783" />
<circle r="5" cx="205.129553" cy="362.005687" />
<circle r="5" cx="343.80374" cy="445.347697" />
<circle r="5" cx="352.235933" cy="344.470562" />
<circle r="5" cx="208.114674" cy="466.618432" />
<circle r="5" cx="133.660538" cy="436.525463" />
<circle r="5" cx="364.892925" cy="469.696598" />
<circle r="5" cx="309.806762" cy="480.698645" />
<circle r="5" cx="328.589346" cy="482.663351" />
<circle r="5" cx="133.221179" cy="514.549828" />
<circle r="5" cx="258.950993" cy="484.459645" />
<circle r="5" cx="37.25194" cy="469.94094" />
<circle r="5" cx="309.184337" cy="479.57597" />
<circle r="5" cx="123.887955" cy="409.551572" />
<circle r="5" cx="364.543533" cy="490.059157" />
<circle r="5" cx="259.57668" cy="469.396289" />
<circle r="5" cx="243.956528" cy="482.309225" />
<circle r="5" cx="308.161865" cy="529.591138" />
<circle r="5" cx="259.57668" cy="469.396289" />
<circle r="5" cx="322.291872" cy="478.341034" />
<circle r="5" cx="319.033295" cy="480.375875" />
<circle r="5" cx="212.891556" cy="546.440672" />
<circle r="5" cx="492.030781" cy="329.354675" />
<circle r="5" cx="398.593832" cy="476.937705" />
<circle r="5" cx="381.463828" cy="209.373241" />
<circle r="5" cx="364.543533" cy="489.750408" />
<circle r="5" cx="170.420216" cy="449.546421" />
<circle r="5" cx="263.821954" cy="326.384465" />
<circle r="5" cx="30.338013" cy="469.141026" />
<circle r="5" cx="317.532152" cy="477.442902" />
<circle r="5" cx="322.035579" cy="481.175783" />
<circle r="5" cx="287.87544" cy="323.296228" />
<circle r="5" cx="215.527708" cy="358.751601" />
<circle r="5" cx="405.330665" cy="345.679609" />
<circle r="5" cx="317.934898" cy="480.053106" />
<circle r="5" cx="319.802172" cy="481.035448" />
<circle r="5" cx="32.19515" cy="468.792259" />
<circle r="5" cx="215.234803" cy="666.856619" />
<circle r="5" cx="242.182136" cy="500.29019" />
<circle r="5" cx="320.314758" cy="480.19344" />
<circle r="5" cx="268.250752" cy="404.986326" />
<circle r="5" cx="182.795486" cy="436.637709" />
<circle r="5" cx="344.699165" cy="307.141138" />
<circle r="5" cx="260.269069" cy="512.528724" />
<circle r="5" cx="281.651192" cy="449.546421" />
<circle r="5" cx="221.312598" cy="467.675948" />
<circle r="5" cx="366.374194" cy="426.086771" />
<circle r="5" cx="85.184629" cy="324.193765" />
<circle r="5" cx="222.850353" cy="443.148101" />
<circle r="5" cx="319.509267" cy="482.607204" />
<circle r="5" cx="283.802727" cy="430.277656" />
<circle r="5" cx="126.740639" cy="368.233461" />
<circle r="5" cx="318.461091" cy="557.696287" />
<circle r="5" cx="364.616759" cy="532.965136" />
<circle r="5" cx="188.193622" cy="163.643378" />
<circle r="5" cx="262.09973" cy="435.964231" />
<circle r="5" cx="1008.751899" cy="16.802618" />
<circle r="5" cx="340.060459" cy="485.474412" />
<circle r="5" cx="321.193475" cy="477.779701" />
<circle r="5" cx="314.603094" cy="480.10924" />
<circle r="5" cx="151.96715" cy="408.465523" />
<circle r="5" cx="247.015082" cy="471.941924" />
</svg>
